<?xml version="1.0" encoding="UTF-8" standalone="no"?>
<!-- Created with Inkscape (http://www.inkscape.org/) -->

<svg
   version="1.1"
   id="svg2"
   xml:space="preserve"
   width="4982.6665"
   height="4394.6665"
   viewBox="0 0 4982.6665 4394.6665"
   xmlns="http://www.w3.org/2000/svg"
   xmlns:svg="http://www.w3.org/2000/svg"><defs
     id="defs6" /><g
     id="g8"
     transform="matrix(1.3333333,0,0,-1.3333333,0,4394.6667)"><g
       id="g10"
       transform="scale(0.1)"><path
         d="m 22746.064,16173.053 c 793.067,381.622 1413.555,-220.129 1830.273,-612.079 423.294,165.868 398.426,-196.146 532.828,-406.406 41.643,-65.191 100.249,-123.204 152.092,-182.197 l 218.43,-254.209 c 314.336,-368.645 656.182,-761.566 890.689,-1177.588 91.646,-162.571 506.54,-1149.162 416.028,-1333.877 -129.072,-263.415 -1587.51,-856.65 -1932.118,-1020.37 -425.639,-142.392 -2014.8,-775.239 -2239.994,-687.059 -175.07,68.604 -522.08,897.887 -575.562,1059.064 -147.474,444.336 -202.736,932.265 -235.453,1405.388 l -29.664,499.462 c -5.925,103.913 -7.907,209.906 -26.854,311.196 -51.332,274.107 -325.161,587.484 217.695,722.491 -28.56,568.986 14.14,1337.871 781.61,1676.184 z m 77.252,-207.181 c -550.44,-275.042 -671.535,-975.477 -562.96,-1396.371 151.797,17.479 434.461,72.797 568.842,56.106 50.074,-6.247 107.503,-69.081 154.771,-64.362 116.537,11.636 189.017,193.28 438.985,237.259 55.579,3.477 104.654,0.592 158.091,-5.456 130.632,107.796 83.062,135.105 159.712,227.033 145.398,174.378 362.603,305.812 558.368,437.529 -323.159,302.776 -869.617,784.248 -1475.809,508.262 z m 895.041,-1319.097 c -149.06,-108.987 18.8,-181.495 -375.858,-318.952 -60.737,13.39 -121.623,31.716 -183.552,41.7 -157.268,-51.904 -76.199,-122.158 -18.602,-192.317 131.03,-68.911 606.515,206.348 684.643,305.036 36.393,45.994 -25.648,189.411 -106.631,164.533 z"
         style="fill:#000000;fill-opacity:1;fill-rule:nonzero;stroke:none;stroke-width:0.427453"
         id="path14" /><path
         d="m 18061.741,32230.581 c 787.93,92.4 1034.53,-266.3 1480.78,-816.2 87.15,-107.3 193.56,-188 262.42,-310.4 12.74,-240.9 2.93,-484.5 0,-725.7 841.14,-522.3 586.84,-1094.1 -73.43,-1594 202.18,406.3 375.86,619.3 73.43,1055.8 -425.78,-403 -194.84,95.5 -370.5,-555.1 -62.89,-232.9 -188.44,-430.2 -325.98,-625.2 482.34,-1736 524.57,-986.5 1869.34,-1631.1 797.46,-382.2 822.77,-1572.2 1087.34,-2306.3 -116.17,-178.6 -236.8,-240.9 -430.16,-312.3 -43.51,-542.4 -12.65,-1721.8 150.67,-2213.9 166.48,-501.9 411.25,-969.1 524.76,-1489.7 184.44,-845.2 228.04,-1722.9 519.84,-2544.7 369.1,-1039.3 721.7,-630.7 840.8,-2177.6 -118.8,-181 -960.9,-1051.1 -859,-536.2 l -31.9,19.5 c -89.3,1.2 -168.7,-26.9 -253.5,-51.9 -275.34,501.9 -410.77,46.4 139.7,630.9 213.3,226.6 -486.52,1027.2 -483.24,1636.5 3.16,567.9 -752.93,1990.2 -1004.22,2541.4 -583.87,1280.6 -540.94,1782.4 -569.38,3131 -210.62,-592.3 -471.25,-1183.5 -469.41,-1827.4 1.56,-520.8 378.95,-1185.8 506.41,-1713.7 187.42,-775.9 382.26,-1891.5 515.39,-2699 27.61,-167.5 -63.95,-93.4 -110.24,-180.5 -98.47,-185.3 192.15,-1192.2 272.03,-1415.1 -89.84,-48.3 -171.09,-108.4 -253.71,-167.8 222.58,-563.6 496.88,-1085.5 565,-1697.2 -70.47,-503.9 -580.43,-115.9 -858.12,-221.5 -219.34,-83.5 54.8,-414.9 -634.42,-643.5 -6.64,-544.7 10.98,-1117.5 109.5,-1654.8 129.41,-705.8 355.15,-1364.9999 337.81,-2094.4899 -38.24,-1603.95 -700.51,-3234.38 -858.24,-4905.12 82.38,-95.35 117.11,-195.43 153.86,-313.32 l -153.86,-185.74 c -26.61,-824.34 192.38,-2274.42 75.78,-2947.58001 -99.81,-575.977 -1052.19,-807.5 -1467.11,-442.379 -243.99,880.30901 153.4,1814.64901 260.66,2695.38901 42.58,349.37 11.41,736.29 82.74,1075.62 43.51,207.07 165.82,398.83 236.05,598.4 173.44,492.93 190.9,1028.67 188.83,1545.47 -79.18,715.51 -293.36,1412.7 -337.66,2131.72 -37.22,604.33 95.47,1309.03 19.34,1877.8299 -42.34,316.2 -203.79,617.9 -274.57,931.3 -125.7,556.7 -173.75,1123.1 -249.34,1687.7 -333.12,87.4 -451.56,115.1 -525.82,478 h -275.97 c -76.21,-348 -53.05,-735 -93.09,-1090.6 -38.67,-343.7 -175.7,-678.7 -207.15,-1007.9 -84.3,-882.5 33.79,-1972.2299 -1.83,-2896.1799 -49.5,-1284.14 -293.95,-2211.24 -63.72,-3560.66 43.52,-255.12 175.2,-405.16 292.54,-622.34 115,-212.85 98.6,-431.68 132.43,-664.65 115.39,-794.02 688.08,-2332.5 431.32,-3098.31801 -142.73,-425.742002 -1191.44,-270.121002 -1403.28,112.888 -424.8,768.08001 206.92,2394.65001 -275.78,3449.84001 39.3,106.06 88.95,174.61 176.84,245.51 -327.07,2301.13 -1401.88,4167.27 -1010.28,6691.6099 179.11,1154.5 261.21,1829.3 -10.74,3045.7 -377.26,84.3 -664.14,3.5 -953.94,322.3 l 60.19,346 c -133.83,69.9 -257.34,128.4 -401.05,176.2 -122.5,2.3 -244.46,4.6 -366.88,0 68.91,428 382.19,977.8 707.74,1267.1 -53.91,53.5 -110.75,100.5 -170,148 59.88,369.4 281.29,918 416.64,1277.6 -99.22,108.3 -172.54,226.2 -246.64,352.2 78.04,300.2 803.32,2127 953.94,2349.6 -644.8,-120.4 -954.14,390.4 -1381.4,833.6 -405.55,420.7 -1610.59,1803.9 -1578.329,2374.7 24.219,428.5 1310.359,1948.8 1664.929,2245.8 -147.35,193.5 -207.58,265.5 13.67,410.8 473.36,310.7 760.39,1101.5 1447.89,1442.4 637.85,316.2 1785.12,-495.9 2141.95,992.8 -262.42,279.2 -486.68,682.6 -738.79,913.1 -14.37,-148.2 -83.94,-286 -87.3,-436.1 -8.32,-374.5 169.14,-730.2 190.82,-1107.7 -114.84,301.4 -405.59,1107 -400.2,1406.1 3.44,188.9 102.23,350.3 96.02,545.6 l -1.02,28.1 c -341.52,565.9 -205.27,588.6 -111.95,1213.8 23.83,159.4 -0.94,480.8 92.77,613.9 153.64,218.1 360.82,71.1 656.8,398 148.95,164.5 416.29,207.7 624.18,244.1 z m -2148.91,-7024.1 c -251.68,-438.3 -223.75,-883.4 -759.41,-403.2 -438.16,-329.6 -1034.1,-1087.7 -1453.55,-1526.2 317.07,-622.3 608.55,-1276.4 1024.53,-1841.3 110.19,-207.3 255.35,-408.8 429.02,-567.7 211.33,54.7 1207.81,720.8 1316.45,897.3 318.78,517.9 -112.97,1732.4 -272.5,2310.5 -69.93,253.4 -118.64,969.3 -284.54,1130.6 z m 6996.12,-8434.6 c -11.9,-91.6 -28.7,-689.9 184.8,-552 94.2,183.3 61.4,526.7 -184.8,552 z"
         style="fill:#000000;fill-opacity:1;fill-rule:nonzero;stroke:none"
         id="path16" /></g></g></svg>
