<?xml version="1.0" encoding="UTF-8" standalone="no"?>
<!-- Created with Inkscape (http://www.inkscape.org/) -->

<svg
   width="700mm"
   height="300mm"
   viewBox="0 0 700 300"
   version="1.1"
   id="svg5"
   xmlns="http://www.w3.org/2000/svg"
   xmlns:svg="http://www.w3.org/2000/svg">
  <defs
     id="defs2" />
  <g
     id="layer4"
     style="display:none">
    <rect
       style="fill:#efefff;fill-opacity:1;stroke-width:1.5;stroke-linejoin:bevel"
       id="rect12329"
       width="700.35248"
       height="301.23706"
       x="0"
       y="-0.95027471" />
  </g>
  <g
     id="layer1"
     style="display:inline">
    <g
       aria-label="Esterial"
       id="text5655"
       style="font-size:211.667px;line-height:1.25;font-family:MonteCarlo;-inkscape-font-specification:MonteCarlo;fill:#99795a;stroke-width:0.264583">
      <path
         d="m 111.13435,232.55013 q -14.181685,-1.48167 -23.283366,-7.19668 -8.890014,-5.71501 -13.123354,-13.97002 -4.233341,-8.46668 -4.233341,-17.3567 0,-1.27 0,-2.54 0.211667,-1.27 0.423334,-2.54001 1.905004,-13.75835 10.583351,-26.03504 8.890014,-12.27669 23.495036,-18.83836 2.96334,-1.27 5.92668,-2.32834 3.175,-1.27 4.44501,-1.48167 -3.81001,-7.62001 -3.81001,-15.66336 0,-6.77334 2.32834,-13.33502 2.54,-6.56168 6.56167,-12.065018 6.13835,-8.043346 15.02836,-13.758355 8.89002,-5.71501 19.05003,-8.678348 10.16002,-3.175005 20.10837,-3.175005 5.08001,0 10.16001,0.846668 5.29168,0.635001 9.73669,2.751671 5.29167,2.328337 7.62001,5.926677 2.54,3.598339 2.54,7.620012 0,9.313348 -10.16001,16.086688 -3.17501,2.11667 -8.67835,3.59834 -5.29168,1.48167 -10.58335,1.48167 -7.40835,0 -11.64169,-3.175 -0.84667,-0.84667 -0.84667,-1.48167 0,-0.635 0.63501,-0.84667 0.635,-0.42333 0.84666,-0.21167 5.50335,2.54001 11.85336,2.54001 9.52501,0 16.08669,-4.44501 8.25501,-5.503342 8.25501,-12.911687 0,-3.175005 -1.905,-5.926676 -1.69334,-2.751671 -5.92668,-4.656674 -3.38667,-1.693337 -7.83168,-2.328338 -4.23334,-0.846668 -8.25501,-0.846668 -10.37168,0 -21.37837,4.656675 -10.79501,4.445007 -18.20336,12.065019 -5.29168,5.715009 -9.52502,14.605019 -4.23334,8.89002 -4.23334,17.78003 0,5.08001 1.90501,9.94835 5.92667,-2.11667 11.85335,-2.96334 6.13834,-1.05833 11.64169,-1.05833 14.81669,0 14.81669,7.62001 0,4.44501 -5.08001,8.46668 -5.08001,3.81001 -14.39336,3.81001 -1.27,0 -2.54,0 -1.27001,-0.21167 -2.54001,-0.42334 -8.46668,-1.05833 -13.33502,-3.38667 -4.86834,-2.54 -8.67835,-6.13834 -2.54,1.27 -5.29167,2.75167 -2.75167,1.27 -5.71501,3.59834 -11.006685,9.31335 -16.510027,21.1667 -5.503342,11.85335 -5.503342,22.86004 0,12.48835 5.715009,20.10836 5.715009,7.62001 14.81669,10.79502 9.31335,3.38667 19.68503,3.38667 12.06502,0 23.28337,-3.59834 13.12336,-4.23334 25.18838,-13.12335 12.06502,-8.89002 18.62669,-23.07171 2.32834,-5.29167 2.32834,-9.52501 0,-5.50334 -3.59834,-8.89002 -3.59834,-3.38667 -9.94835,-3.38667 -0.84667,0 -1.69333,0 -0.635,0 -1.69334,0.21167 -8.67835,1.27 -14.18169,5.71501 -5.29167,4.44501 -8.04335,9.52501 -2.75167,5.08001 -4.23334,8.89002 -0.635,1.27 -1.05833,1.27 -0.84667,0 -0.84667,-2.11667 0,-0.635 0,-1.27 0.21167,-0.84667 0.42334,-1.69334 0.84666,-2.54 3.81,-7.40834 2.96334,-5.08001 8.67835,-9.73669 5.71501,-4.65667 14.39336,-6.35001 2.96333,-0.635 5.50334,-0.635 8.46668,0 13.75835,4.86834 5.29168,4.65668 5.29168,12.06502 0,4.23334 -2.32834,9.94835 -4.65667,10.58335 -13.33502,18.83837 -8.46668,8.25501 -19.47337,13.75835 -10.79501,5.71501 -22.64837,8.46668 -11.85335,2.96334 -23.0717,2.96334 -2.11667,0 -4.23334,-0.21167 -1.905,0 -3.81001,-0.21166 z m 35.77173,-84.03181 q 4.02167,0 7.19668,-1.27 5.50334,-1.905 5.50334,-5.92667 0,-2.32834 -2.75167,-4.02168 -2.75167,-1.905 -8.46668,-1.905 -6.35001,0 -11.85335,0.84667 -5.50335,0.84667 -10.37169,2.32834 3.17501,5.29167 9.52502,7.62001 6.56167,2.32833 11.21835,2.32833 z"
         id="path976" />
      <path
         d="m 214.00449,222.17844 q -4.44501,0 -8.25501,-1.69333 -3.59834,-1.90501 -5.92668,-6.35001 -1.69334,-3.81001 -1.69334,-8.25502 0,-4.65667 1.69334,-8.67834 1.69334,-3.59834 3.81001,-6.35001 2.11667,-2.75167 4.65667,-3.17501 1.905,-4.23334 5.71501,-11.21835 4.02167,-6.98501 8.89001,-13.97002 5.08001,-6.98501 9.52502,-11.21835 1.05833,-1.05834 3.59834,-3.38668 2.75167,-2.54 6.13834,-4.86834 3.59834,-2.32833 6.56168,-2.75167 0.635,-0.21167 1.69333,-0.21167 2.54001,0 3.81001,1.27001 1.27,1.27 1.27,2.96333 0,1.69334 -1.27,3.38668 -1.27,1.69333 -4.02167,2.75167 -1.05834,0.21166 -3.17501,0.635 -1.905,0.42333 -5.71501,0.42333 -1.48167,2.11667 -1.48167,5.92668 0,4.23334 1.27001,9.52501 1.48167,5.29168 2.75167,10.37169 1.48167,4.86834 1.48167,8.25501 0.42333,7.83168 -2.54001,15.87503 -2.75167,7.83168 -8.89001,13.33502 l -2.96334,2.11667 q 0.635,0.21167 1.27,0.42333 0.635,0 1.27,0 3.59834,0 8.04335,-2.11667 4.44501,-2.32833 7.83168,-5.71501 5.08001,-4.86834 8.67835,-10.37168 3.81,-5.50334 6.98501,-11.43002 0.21167,-0.84667 1.05833,-0.84667 1.05834,0 1.05834,1.69334 0,0.84667 -0.635,1.905 -3.17501,5.92668 -7.83168,12.48836 -4.44501,6.35001 -9.31335,10.79501 -3.81001,3.38668 -8.25501,5.08001 -4.23334,1.48167 -7.19668,1.48167 -2.11667,0 -3.38667,-0.42333 -1.27001,-0.42334 -2.32834,-1.27001 -2.96334,1.48167 -6.77335,2.54001 -3.59833,1.05833 -7.40834,1.05833 z m 8.04335,-5.50334 q 4.23334,-2.96334 6.56167,-7.62001 2.54001,-4.65668 3.81001,-9.94835 1.69333,-6.35001 1.905,-13.12335 0.42334,-6.77335 0.42334,-12.27669 v -7.40835 q 0,-4.445 1.05833,-9.10168 1.27,-4.65667 2.54001,-5.71501 -3.17501,1.27001 -6.98502,5.71501 -3.81,4.23334 -7.62001,10.16002 -3.81,5.71501 -6.98501,11.21835 -2.96334,5.50334 -4.65667,9.10168 4.02167,-0.21167 5.50334,2.32834 1.48167,2.32834 0.84667,3.38667 -1.69334,-0.42333 -2.32834,-0.42333 -3.17501,0 -5.92668,2.32833 -2.75167,2.11667 -4.65667,6.35001 -1.905,4.02168 -1.905,7.83168 0,5.08001 2.96333,7.40835 2.96334,2.32834 6.98502,2.32834 4.65667,0 8.46668,-2.54001 z"
         id="path978" />
      <path
         d="m 273.48284,221.96678 q -5.29168,0 -9.52502,-2.96334 -4.02167,-3.17501 -4.02167,-10.16002 0,-7.40834 3.59834,-16.29836 3.59834,-8.89001 6.77334,-15.87502 1.69334,-3.38668 4.44501,-9.10168 2.96334,-5.92668 6.35001,-11.64169 h -9.94835 q -0.635,0 -0.635,-1.05833 0,-0.84667 0.635,-1.69334 0.635,-1.05834 1.48167,-1.05834 5.92668,0 8.89001,-1.05833 2.96334,-1.05834 5.08001,-2.96334 3.38667,-2.96334 6.56168,-7.62001 3.38667,-4.65668 6.56168,-8.04335 2.32833,-2.96334 5.71501,-4.445 3.59833,-1.48167 4.65667,-1.05834 -1.05834,1.48167 -3.38667,5.08001 -2.32834,3.59834 -4.86834,7.83168 -2.54001,4.23334 -4.65668,7.83168 -2.11667,3.59834 -2.75167,4.86834 h 13.97002 q 0.635,0 0.635,0.42333 0,0.84667 -1.05833,1.90501 -0.84667,1.05833 -1.69334,1.05833 h -13.75835 q -3.81001,6.56168 -9.10168,17.14503 -5.08001,10.37168 -9.10168,20.10836 -0.84667,1.90501 -2.96334,7.62002 -1.90501,5.715 -1.90501,10.58335 0,3.175 1.27001,5.29167 1.48167,2.11667 4.86834,2.11667 3.59834,0 7.83168,-2.54 4.23334,-2.75167 6.56167,-5.50334 4.86835,-5.29168 8.89002,-11.64169 4.02167,-6.35001 8.04334,-13.54669 0.63501,-0.84667 1.27001,-0.84667 0.84666,0 0.84666,1.27001 0,1.05833 -0.42333,1.69333 -3.81001,6.98501 -8.25501,13.97002 -4.23334,6.98502 -10.37169,13.12336 -2.75167,2.75167 -7.40834,5.08001 -4.65668,2.11667 -9.10168,2.11667 z"
         id="path980" />
      <path
         d="m 325.97614,222.17844 q -12.27668,0 -17.35669,-6.35001 -2.54001,-2.75167 -3.59834,-6.56167 -1.05834,-3.81001 -1.05834,-7.83168 0,-5.08001 1.27001,-10.16002 1.27,-5.29167 3.175,-9.73668 2.96334,-6.98501 7.83168,-13.97002 4.86834,-7.19668 11.64169,-12.06502 6.98501,-4.86835 15.24002,-4.86835 5.50334,0 8.67835,2.75168 3.175,2.75167 3.175,8.46668 0,6.56167 -4.02167,13.33502 -4.02167,6.56168 -10.16002,11.00668 -6.13834,4.44501 -12.70002,4.44501 -5.92667,0 -10.37168,-4.23334 -1.27,3.38667 -2.11667,7.62001 -0.84667,4.02167 -0.84667,8.25501 0,6.56168 2.54001,11.43002 2.75167,4.86834 9.73668,4.86834 5.08001,0 9.73668,-2.54 4.86834,-2.75167 8.67835,-6.56168 4.23334,-4.445 8.04334,-9.52501 3.81001,-5.08001 7.40835,-11.85335 0.42333,-0.63501 0.635,-0.63501 0.84667,0 0.84667,1.90501 0,1.27 -0.84667,2.75167 -3.175,5.71501 -7.40834,11.64168 -4.23334,5.71501 -8.67835,9.94835 -4.02168,3.81001 -8.67835,6.13835 -4.65667,2.32833 -10.79502,2.32833 z m -7.19667,-38.94673 q 1.48166,2.11667 3.38667,3.17501 2.11667,0.84667 4.23334,0.84667 5.08001,0 10.58335,-3.81001 5.50334,-4.02167 8.89001,-9.31335 1.48167,-2.32833 2.54001,-6.13834 1.27,-3.81001 1.27,-7.19668 0,-2.96334 -1.27,-5.08001 -1.05834,-2.32833 -4.44501,-2.32833 -3.81001,0 -9.10168,4.65667 -5.08001,4.65667 -9.73668,12.06502 -1.48167,2.54 -3.38668,5.92668 -1.69333,3.38667 -2.96333,7.19667 z"
         id="path982" />
      <path
         d="m 402.17608,216.6751 q -3.59834,2.96334 -7.19667,4.23334 -3.38668,1.48167 -6.35001,1.48167 -5.29168,0 -8.89002,-3.59834 -3.38667,-3.81 -3.38667,-9.94835 0,-3.59834 1.69333,-8.67835 2.75168,-7.62001 8.25502,-14.60502 5.50334,-6.98501 10.58335,-14.18169 3.175,-4.23334 3.175,-8.25501 0,-2.11667 -1.27,-3.59834 -1.05833,-1.48167 -4.02167,-1.69334 -1.69334,-0.42333 -3.81001,-0.42333 -2.11667,0 -4.23334,0 h -5.92667 q -1.27001,0 -2.32834,0 -1.05834,0 -1.905,-0.21167 -0.84667,5.29168 -3.59834,11.85335 -2.54001,6.56168 -5.92668,13.12336 -3.38667,6.56168 -6.56168,11.85335 -0.84666,1.27 -1.48167,1.27 -0.635,0 -0.635,-1.27 0,-1.48167 0.635,-2.32834 4.44501,-8.67834 8.46668,-16.93336 4.23334,-8.46668 5.71501,-17.56836 -4.86834,-2.75167 -6.56167,-9.52501 -0.21167,-1.05834 -0.42334,-1.90501 0,-1.05833 0,-1.905 0,-3.81001 1.48167,-6.35001 1.69334,-2.75167 3.81001,-2.75167 2.96334,0 4.86834,5.71501 0.42333,1.48167 0.635,3.38667 0.21167,1.69334 0.21167,3.38667 0,1.90501 -0.21167,3.59834 0,1.48167 -0.21167,2.54001 1.48167,0.42333 3.81001,0.635 2.54,0.21166 5.50334,0.21166 4.44501,0 9.31335,-0.21166 4.86834,-0.42334 8.25501,-0.42334 4.02168,0 5.50334,1.69334 1.48167,1.69334 1.48167,4.23334 0,3.175 -1.69333,6.98501 -1.48167,3.59834 -2.96334,6.13834 -2.75167,5.08001 -5.29168,9.10169 -2.32833,3.81 -5.29167,8.25501 -4.44501,6.77334 -6.56168,12.48835 -1.905,5.50334 -1.905,9.31335 0,6.56168 4.86834,6.56168 4.02167,0 10.37168,-5.71501 4.02168,-3.59834 7.40835,-8.46668 3.59834,-5.08001 6.35001,-10.16002 2.96334,-5.29167 4.86834,-8.67835 0.42333,-0.635 0.84667,-0.635 0.84667,0 0.84667,1.69334 0,1.27 -0.635,2.32834 -3.59834,6.56167 -8.25502,14.39335 -4.65667,7.83168 -11.43002,13.54669 z"
         id="path984" />
      <path
         d="m 425.45925,221.75511 q -5.92667,0 -8.67835,-3.81001 -2.75167,-4.02167 -2.75167,-9.73668 0,-1.69334 0.21167,-3.38667 0.42333,-1.905 0.84667,-3.81001 2.32834,-8.46668 7.19668,-18.83836 5.08,-10.58335 9.73668,-18.83836 2.75167,-4.65668 5.08001,-6.56168 2.32833,-2.11667 5.08001,-2.96334 2.75167,-1.05833 6.56167,-2.32834 1.05834,-0.42333 2.11667,-0.635 1.05834,-0.21167 2.32834,-0.42333 -4.23334,4.23334 -8.67835,10.16001 -4.23334,5.92668 -9.31335,16.29836 -2.75167,5.50335 -5.50334,12.27669 -2.54,6.77334 -4.44501,12.70002 -1.905,5.92668 -2.11667,9.31335 -0.21166,4.02167 1.05834,5.71501 1.27,1.69333 3.38667,1.69333 3.59834,0 6.77335,-2.54 3.38667,-2.54 5.92667,-5.29167 4.65668,-5.29168 8.67835,-11.64169 4.23334,-6.35001 8.25501,-13.54669 0.635,-0.84667 1.05834,-0.84667 0.84667,0 0.84667,1.27001 0,1.05833 -0.42334,1.69333 -3.81,6.98501 -8.04334,13.97002 -4.23334,6.98502 -10.37169,13.12336 -2.75167,2.75167 -6.56168,4.86834 -3.59833,2.11667 -8.25501,2.11667 z m 25.82338,-83.18513 q -2.32834,0 -4.02168,-1.69334 -1.48167,-1.69334 -1.48167,-4.02167 0,-2.96334 2.32834,-5.29168 2.54001,-2.32834 5.50334,-2.75167 2.32834,0 3.81001,1.69334 1.69334,1.48167 1.69334,4.02167 0,2.75167 -2.32834,5.50334 -2.32834,2.54001 -5.50334,2.54001 z"
         id="path986" />
      <path
         d="m 501.02417,221.96678 q -6.77334,0 -9.31335,-4.23334 -2.54,-4.44501 -2.54,-9.73669 0,-1.05833 0.21167,-3.59834 0.42333,-2.75167 0.84667,-5.08 -2.96334,4.02167 -7.19668,8.89001 -4.02168,4.86834 -8.25502,8.25501 -6.77334,5.50335 -12.27668,5.50335 -5.29168,0 -8.25502,-4.44501 -2.75167,-4.44501 -2.75167,-11.21835 0,-8.67835 3.81001,-17.56836 3.81001,-8.89002 9.94835,-16.7217 6.35001,-8.04334 13.97002,-13.75835 4.44501,-3.17501 10.79502,-5.08001 6.56168,-2.11667 13.12335,-2.11667 7.40835,0 12.91169,2.32834 5.71501,2.11667 7.83168,6.13834 -4.44501,5.71501 -9.10168,14.18169 -4.65668,8.25501 -8.04335,15.02836 -2.32834,4.65667 -5.08001,11.64168 -2.75167,6.77335 -2.75167,11.64169 0,2.11667 1.05834,4.23334 1.05833,2.11667 4.02167,2.11667 3.38667,0 6.56168,-2.54001 3.175,-2.54 5.29167,-5.08 4.86834,-5.29168 8.89002,-11.64169 4.02167,-6.35001 8.04334,-13.54669 0.635,-0.84667 1.27001,-0.84667 0.84666,0 0.84666,1.27001 0,1.05833 -0.42333,1.69333 -3.59834,6.98501 -8.04335,13.97002 -4.445,6.98502 -10.58335,13.12336 -2.96333,2.96334 -6.98501,5.08001 -4.02167,2.11667 -7.83168,2.11667 z m -33.86672,-6.56168 q 4.02167,0 8.67835,-4.23334 4.86834,-4.44501 9.31335,-10.58335 4.65667,-6.35001 8.25501,-12.06502 3.81001,-5.92668 5.92668,-9.10168 4.445,-6.98501 8.25501,-11.64169 3.81001,-4.65667 11.85335,-7.19668 0.42334,0 0.635,0 0.42334,-0.21166 0.84667,-0.21166 -1.905,-2.96334 -6.35001,-4.44501 -4.44501,-1.48167 -8.67835,-1.48167 -6.56167,0 -12.70002,3.59834 -6.13834,3.59834 -11.21835,9.10168 -4.86834,5.71501 -9.52501,12.48835 -4.65668,6.77335 -7.62002,13.75836 -2.75167,6.98501 -2.75167,13.33502 0,3.38667 1.05834,6.13835 1.27,2.54 4.02167,2.54 z"
         id="path988" />
      <path
         d="m 542.29891,221.75511 q -7.62002,0 -10.58335,-4.44501 -2.96334,-4.445 -2.96334,-11.21835 0,-6.98501 2.11667,-15.24002 2.32834,-8.25502 5.29167,-16.0867 3.17501,-7.83168 5.92668,-13.75835 2.96334,-5.92668 4.02167,-8.25501 3.81001,-8.04335 9.31335,-18.20337 5.71501,-10.16001 12.70002,-20.74336 7.19668,-10.58335 15.02836,-20.10837 8.04335,-9.525015 16.51003,-16.510027 8.67834,-6.985011 17.14502,-9.525015 2.32834,-0.635001 4.23334,-0.635001 3.59834,0 5.92668,2.11667 2.54,1.905003 2.54,6.773344 0,3.386672 -1.69333,8.466681 -2.75167,7.408345 -9.31335,16.510028 -6.56168,8.89001 -15.45169,18.62669 -8.89002,9.52502 -18.83837,18.83837 -9.73668,9.31335 -19.05003,17.35669 -9.31335,8.04335 -16.51002,13.75836 -1.90501,4.02167 -3.59834,7.83168 -1.48167,3.81 -2.75167,7.40834 -0.635,1.90501 -1.90501,5.71501 -1.27,3.81001 -2.32833,8.46668 -1.05834,4.65668 -1.05834,8.89002 0,4.23334 1.69334,7.40834 1.69333,2.96334 6.13834,2.96334 3.59834,0 6.56168,-2.32834 3.175,-2.32833 5.71501,-5.08 8.89001,-10.16002 15.87502,-23.49504 0.84667,-1.48167 1.27,-1.48167 0.42334,0 0.42334,1.27 0,1.905 -0.84667,4.02167 -4.02167,7.40835 -7.40834,12.48836 -3.17501,5.08001 -9.31335,11.21835 -2.75167,2.75167 -6.56168,4.86834 -3.59834,2.11667 -8.25501,2.11667 z m 8.67834,-57.15009 q 6.56168,-5.71501 15.24003,-13.54669 8.67835,-8.04335 17.78003,-17.14503 9.10168,-9.10168 17.14502,-18.20336 8.25502,-9.10168 14.18169,-17.145029 6.13835,-8.043346 8.25502,-13.970022 1.905,-5.503343 1.905,-8.466681 0,-5.503342 -4.86834,-5.503342 -2.75167,0 -6.56168,2.11667 -3.81,1.905003 -6.98501,5.080008 -5.29167,5.080009 -12.48835,14.605024 -6.98501,9.313352 -14.81669,21.378372 -7.83168,12.06502 -15.45169,25.18837 -7.40835,13.12335 -13.33503,25.61171 z"
         id="path990" />
    </g>
  </g>
  <g
     id="g28553"
     style="display:inline">
    <path
       id="path28551"
       style="fill:#d40000;stroke-width:5.66929;stroke-linejoin:bevel"
       transform="matrix(0,-0.18139963,0.18139963,0,409.64395,318.82171)"
       d="m 1072.2529,360.94596 c -9.0613,1.56074 -46.6816,-64.61144 -54.7899,-68.55289 -8.1083,-3.94145 -76.83758,22.64658 -82.09969,15.17497 -5.26211,-7.47161 41.81079,-65.65435 42.88803,-74.75647 1.07725,-9.10212 -33.77651,-71.41983 -27.30088,-78.21454 6.47562,-6.79471 65.54514,28.28722 74.72404,26.58992 9.1788,-1.6973 59.3641,-65.40553 68.1921,-62.26902 8.8279,3.13651 1.3649,84.97969 6.4282,92.68037 5.0633,7.70067 62.1388,28.82844 60.8155,37.75784 -1.3234,8.92939 -70.816,22.29373 -76.2873,29.6421 -5.4713,7.34836 -3.5087,80.38698 -12.5701,81.94772 z" />
  </g>
</svg>
