<?xml version="1.0" encoding="UTF-8" standalone="no"?>
<!-- Created with Inkscape (http://www.inkscape.org/) -->

<svg
   width="300mm"
   height="300mm"
   viewBox="0 0 300 300"
   version="1.1"
   id="svg5"
   xmlns="http://www.w3.org/2000/svg"
   xmlns:svg="http://www.w3.org/2000/svg">
  <defs
     id="defs2" />
  <g
     id="layer4"
     style="display:none">
    <rect
       style="fill:#efefff;fill-opacity:1;stroke-width:1.5;stroke-linejoin:bevel"
       id="rect12329"
       width="700.35248"
       height="301.23706"
       x="0"
       y="-0.95027471" />
  </g>
  <g
     id="g28553"
     style="display:inline"
     transform="matrix(5.0201096,0,0,5.0201096,-2124.9119,-496.12375)">
    <path
       id="path28551"
       style="fill:#d40000;stroke-width:5.66929;stroke-linejoin:bevel"
       transform="matrix(0,-0.18139963,0.18139963,0,409.64395,318.82171)"
       d="m 1072.2529,360.94596 c -9.0613,1.56074 -46.6816,-64.61144 -54.7899,-68.55289 -8.1083,-3.94145 -76.83758,22.64658 -82.09969,15.17497 -5.26211,-7.47161 41.81079,-65.65435 42.88803,-74.75647 1.07725,-9.10212 -33.77651,-71.41983 -27.30088,-78.21454 6.47562,-6.79471 65.54514,28.28722 74.72404,26.58992 9.1788,-1.6973 59.3641,-65.40553 68.1921,-62.26902 8.8279,3.13651 1.3649,84.97969 6.4282,92.68037 5.0633,7.70067 62.1388,28.82844 60.8155,37.75784 -1.3234,8.92939 -70.816,22.29373 -76.2873,29.6421 -5.4713,7.34836 -3.5087,80.38698 -12.5701,81.94772 z" />
  </g>
</svg>
